<svg xmlns="http://www.w3.org/2000/svg" width="192" height="192" fill="none"><path fill="#000" fill-rule="evenodd" d="M89.337 15.514 C 86.430 17.257,84.394 19.576,82.587 23.201 C 81.164 26.056,80.000 29.002,80.000 29.746 C 80.000 30.805,78.729 30.956,74.164 30.439 C 67.520 29.687,63.159 31.302,60.380 35.543 C 59.479 36.919,57.931 42.553,56.941 48.063 C 54.723 60.415,52.257 64.843,43.030 73.044 C 34.555 80.576,30.595 86.518,28.437 94.939 C 26.432 102.765,27.497 112.038,31.373 120.504 C 34.706 127.785,43.513 136.921,50.707 140.560 C 56.009 143.243,57.420 143.484,69.964 143.844 C 86.648 144.323,89.563 145.484,94.053 153.440 C 98.425 161.186,104.644 166.550,111.598 168.572 C 122.686 171.795,133.024 168.873,142.610 159.808 C 151.939 150.984,155.178 142.262,157.088 120.819 C 158.026 110.288,157.955 107.097,156.631 100.418 C 155.746 95.956,155.120 88.136,155.196 82.500 C 155.309 74.160,154.987 71.836,153.257 68.500 C 148.965 60.221,143.154 56.495,130.592 53.969 C 125.308 52.905,119.871 51.306,118.510 50.414 C 114.177 47.576,112.020 42.756,110.869 33.343 C 109.616 23.101,107.226 17.719,102.710 14.965 C 98.407 12.341,94.353 12.508,89.337 15.514 M101.686 17.750 C 102.736 18.712,102.972 19.075,102.211 18.556 C 101.450 18.036,98.953 17.305,96.663 16.931 L 92.500 16.250 96.139 16.125 C 98.358 16.049,100.523 16.683,101.686 17.750 M99.872 20.434 C 101.398 21.223,103.288 22.659,104.073 23.625 C 105.020 24.791,104.446 24.611,102.365 23.088 C 100.641 21.827,97.716 20.437,95.865 20.000 C 93.405 19.419,93.119 19.177,94.800 19.102 C 96.064 19.046,98.347 19.645,99.872 20.434 M99.743 24.256 C 100.977 24.847,102.745 26.494,103.673 27.915 C 105.185 30.235,104.978 30.167,101.644 27.250 C 98.788 24.750,96.958 23.977,93.715 23.900 C 90.240 23.818,89.939 23.672,92.000 23.068 C 94.646 22.293,96.115 22.518,99.743 24.256 M97.802 27.398 C 99.289 28.166,101.400 29.854,102.495 31.148 L 104.486 33.500 101.850 31.176 C 100.400 29.898,97.253 28.240,94.857 27.493 C 92.009 26.604,91.296 26.111,92.800 26.067 C 94.064 26.030,96.316 26.629,97.802 27.398 M96.282 30.377 C 98.052 31.134,100.850 33.235,102.500 35.045 L 105.500 38.335 101.372 35.098 C 99.101 33.318,95.276 31.247,92.872 30.497 C 90.056 29.619,89.312 29.110,90.782 29.067 C 92.037 29.030,94.512 29.620,96.282 30.377 M69.143 33.493 C 66.747 34.240,63.709 35.864,62.393 37.100 C 61.077 38.337,60.000 38.860,60.000 38.263 C 60.000 35.861,66.125 31.999,69.827 32.067 L 73.500 32.134 69.143 33.493 M90.729 32.604 C 90.397 32.936,89.534 32.972,88.813 32.683 C 88.015 32.364,88.252 32.127,89.417 32.079 C 90.471 32.036,91.061 32.272,90.729 32.604 M98.600 35.833 C 100.745 37.392,103.161 39.529,103.970 40.583 C 105.126 42.092,104.913 42.037,102.970 40.324 C 101.611 39.128,98.475 36.996,96.000 35.586 C 93.525 34.177,92.220 33.019,93.100 33.012 C 93.980 33.005,96.455 34.275,98.600 35.833 M69.500 36.658 C 66.750 38.069,63.426 40.186,62.114 41.362 L 59.729 43.500 60.944 41.167 C 61.612 39.884,64.486 37.751,67.330 36.427 C 74.198 33.229,75.843 33.404,69.500 36.658 M89.351 40.026 C 95.858 45.596,101.731 49.213,107.000 50.896 C 109.888 51.819,110.968 53.019,113.178 57.757 C 117.170 66.318,122.069 71.332,133.013 78.057 C 143.304 84.381,149.505 90.178,150.586 94.487 C 151.027 96.243,150.342 98.786,148.361 102.750 C 144.561 110.354,144.545 110.399,146.014 109.491 C 148.164 108.162,143.767 114.845,138.870 120.348 C 136.323 123.210,131.885 126.834,129.006 128.400 C 124.250 130.989,123.122 131.201,116.636 130.724 C 111.629 130.356,106.894 129.125,100.764 126.600 C 92.549 123.214,91.328 122.992,80.264 122.861 L 68.500 122.721 77.500 121.772 C 91.399 120.307,93.940 120.561,103.922 124.417 C 114.945 128.674,120.850 129.021,127.674 125.813 C 132.348 123.616,145.000 112.635,145.000 110.775 C 145.000 110.228,142.547 112.273,139.548 115.320 C 127.326 127.738,119.473 129.324,103.076 122.683 L 93.652 118.866 81.576 119.553 C 71.461 120.128,68.850 119.968,65.500 118.567 C 57.063 115.039,52.060 107.453,52.022 98.132 C 52.002 93.227,52.324 92.452,55.755 89.132 C 57.820 87.135,60.769 84.600,62.307 83.500 C 65.790 81.010,68.336 73.946,67.511 69.062 C 66.966 65.838,67.212 65.306,70.014 63.651 C 76.532 59.800,79.309 53.917,81.532 39.250 C 81.886 36.913,82.474 35.004,82.838 35.009 C 83.202 35.014,86.133 37.271,89.351 40.026 M98.700 39.674 C 101.560 41.599,104.485 43.905,105.200 44.798 C 106.056 45.868,105.476 45.707,103.500 44.326 C 101.850 43.174,97.800 40.569,94.500 38.537 C 91.200 36.505,89.625 35.142,91.000 35.508 C 92.375 35.874,95.840 37.749,98.700 39.674 M73.917 37.370 C 70.970 39.985,60.356 46.403,61.192 45.064 C 62.348 43.212,71.765 37.000,73.415 37.000 C 73.920 37.000,74.146 37.166,73.917 37.370 M98.722 43.500 C 103.490 46.525,107.828 49.000,108.362 49.000 C 108.896 49.000,109.065 49.269,108.736 49.597 C 107.864 50.470,96.079 44.407,92.000 40.988 C 86.632 36.488,89.157 37.431,98.722 43.500 M73.117 41.359 C 72.497 42.106,69.179 44.648,65.745 47.008 C 62.310 49.367,60.426 50.317,61.559 49.118 C 63.287 47.288,72.677 40.409,73.872 40.097 C 74.077 40.044,73.737 40.611,73.117 41.359 M70.611 47.404 C 65.925 51.416,59.525 55.310,62.072 52.601 C 63.727 50.840,73.144 44.123,74.000 44.093 C 74.275 44.083,72.750 45.573,70.611 47.404 M70.500 51.557 C 67.119 54.357,59.896 58.801,61.616 57.023 C 62.976 55.616,72.303 49.118,73.000 49.091 C 73.275 49.081,72.150 50.190,70.500 51.557 M72.234 54.250 C 71.071 55.487,68.630 57.351,66.810 58.392 C 62.839 60.662,64.012 59.241,69.500 55.132 C 74.350 51.501,75.021 51.284,72.234 54.250 M70.765 59.527 C 68.710 61.437,66.538 63.000,65.937 63.000 C 64.934 63.000,72.864 56.218,74.000 56.104 C 74.275 56.077,72.819 57.617,70.765 59.527 M148.641 64.228 C 149.027 64.852,147.690 64.103,145.671 62.563 C 143.652 61.023,142.000 59.560,142.000 59.313 C 142.000 58.619,147.850 62.948,148.641 64.228 M145.500 65.000 C 146.495 66.100,147.085 67.000,146.810 67.000 C 146.535 67.000,145.495 66.100,144.500 65.000 C 143.505 63.900,142.915 63.000,143.190 63.000 C 143.465 63.000,144.505 63.900,145.500 65.000 M144.000 67.500 C 145.292 68.875,146.124 70.000,145.849 70.000 C 145.574 70.000,144.292 68.875,143.000 67.500 C 141.708 66.125,140.876 65.000,141.151 65.000 C 141.426 65.000,142.708 66.125,144.000 67.500 M65.996 71.750 C 65.994 74.720,65.250 77.718,64.011 79.750 C 61.345 84.123,60.944 83.841,62.677 78.811 C 63.471 76.507,64.048 73.244,63.959 71.561 C 63.741 67.431,63.839 67.000,65.000 67.000 C 65.550 67.000,65.998 69.138,65.996 71.750 M61.994 71.750 C 61.986 75.807,60.178 81.607,58.483 83.014 C 57.181 84.095,57.183 83.807,58.500 80.655 C 59.325 78.680,60.000 75.250,60.000 73.032 C 60.000 70.814,60.450 69.000,61.000 69.000 C 61.550 69.000,61.997 70.237,61.994 71.750 M57.743 74.250 C 57.173 78.941,55.227 84.560,54.444 83.777 C 54.169 83.502,54.407 82.061,54.972 80.574 C 55.537 79.087,56.000 76.099,56.000 73.935 C 56.000 71.676,56.481 70.000,57.130 70.000 C 57.874 70.000,58.083 71.452,57.743 74.250 M53.096 78.386 C 52.458 81.199,51.047 84.625,49.962 86.000 C 47.991 88.496,47.991 88.493,49.894 84.000 C 50.943 81.525,52.137 77.475,52.548 75.000 C 52.959 72.525,53.512 71.124,53.776 71.886 C 54.041 72.648,53.735 75.573,53.096 78.386 M49.459 78.250 C 49.074 80.037,47.894 83.075,46.837 85.000 C 45.781 86.925,45.129 87.825,45.389 87.000 C 48.929 75.772,50.910 71.512,49.459 78.250 M42.933 85.933 C 41.720 88.753,40.559 90.893,40.354 90.687 C 40.149 90.482,40.949 87.983,42.133 85.133 C 43.317 82.284,44.478 80.145,44.713 80.379 C 44.947 80.614,44.147 83.113,42.933 85.933 M37.092 91.104 C 36.019 93.522,35.109 95.172,35.071 94.770 C 34.956 93.586,38.214 85.880,38.646 86.313 C 38.864 86.530,38.164 88.687,37.092 91.104 M31.683 96.188 C 31.364 96.985,31.127 96.748,31.079 95.583 C 31.036 94.529,31.272 93.939,31.604 94.271 C 31.936 94.603,31.972 95.466,31.683 96.188 M30.707 104.238 C 30.468 105.482,30.263 104.700,30.252 102.500 C 30.241 100.300,30.437 99.282,30.687 100.238 C 30.937 101.194,30.946 102.994,30.707 104.238 M33.662 105.250 C 33.385 105.938,33.158 105.375,33.158 104.000 C 33.158 102.625,33.385 102.063,33.662 102.750 C 33.940 103.438,33.940 104.563,33.662 105.250 M36.662 105.250 C 36.385 105.938,36.158 105.375,36.158 104.000 C 36.158 102.625,36.385 102.063,36.662 102.750 C 36.940 103.438,36.940 104.563,36.662 105.250 M47.683 104.188 C 47.364 104.985,47.127 104.748,47.079 103.583 C 47.036 102.529,47.272 101.939,47.604 102.271 C 47.936 102.603,47.972 103.466,47.683 104.188 M50.683 105.188 C 50.364 105.985,50.127 105.748,50.079 104.583 C 50.036 103.529,50.272 102.939,50.604 103.271 C 50.936 103.603,50.972 104.466,50.683 105.188 M42.683 107.188 C 42.364 107.985,42.127 107.748,42.079 106.583 C 42.036 105.529,42.272 104.939,42.604 105.271 C 42.936 105.603,42.972 106.466,42.683 107.188 M62.195 118.939 C 67.793 122.149,68.134 123.126,62.700 120.386 C 58.582 118.309,54.202 114.228,52.411 110.800 C 49.978 106.142,50.872 106.406,53.945 111.253 C 55.876 114.298,58.718 116.945,62.195 118.939 M60.998 121.999 C 62.684 122.698,63.867 123.467,63.625 123.708 C 62.252 125.081,50.000 114.873,50.000 112.356 C 50.000 112.005,51.785 113.746,53.966 116.224 C 56.147 118.702,59.311 121.300,60.998 121.999 M47.489 117.623 C 48.434 119.066,48.713 119.941,48.109 119.567 C 46.955 118.854,44.626 115.000,45.350 115.000 C 45.581 115.000,46.543 116.180,47.489 117.623 M143.920 118.928 C 140.780 124.516,133.513 131.573,128.302 134.096 C 121.423 137.426,112.309 136.421,99.500 130.920 C 91.675 127.560,87.760 126.482,81.500 125.968 L 73.500 125.310 82.571 125.155 C 90.913 125.012,92.494 125.321,102.256 129.000 C 113.412 133.204,120.954 134.109,126.682 131.931 C 131.027 130.279,139.476 123.364,142.525 118.964 C 146.043 113.887,146.764 113.869,143.920 118.928 M53.500 120.000 C 55.648 122.200,57.181 124.000,56.906 124.000 C 56.631 124.000,54.648 122.200,52.500 120.000 C 50.352 117.800,48.819 116.000,49.094 116.000 C 49.369 116.000,51.352 117.800,53.500 120.000 M51.128 122.750 C 52.371 124.336,52.336 124.371,50.750 123.128 C 49.084 121.821,48.555 121.000,49.378 121.000 C 49.585 121.000,50.373 121.787,51.128 122.750 M49.000 124.500 C 50.292 125.875,51.124 127.000,50.849 127.000 C 50.574 127.000,49.292 125.875,48.000 124.500 C 46.708 123.125,45.876 122.000,46.151 122.000 C 46.426 122.000,47.708 123.125,49.000 124.500 M143.307 125.110 C 140.239 130.390,134.083 136.053,128.671 138.573 C 122.063 141.649,115.492 141.669,107.000 138.637 C 100.508 136.320,86.551 129.033,88.563 129.011 C 89.148 129.005,94.548 131.016,100.563 133.480 C 109.913 137.311,112.516 137.962,118.500 137.971 C 124.443 137.980,126.282 137.533,130.675 135.013 C 133.521 133.381,137.796 129.785,140.175 127.023 C 142.554 124.261,144.638 122.001,144.807 122.000 C 144.975 122.000,144.300 123.399,143.307 125.110 M47.000 126.500 C 48.866 128.425,50.167 130.000,49.892 130.000 C 49.617 130.000,47.866 128.425,46.000 126.500 C 44.134 124.575,42.833 123.000,43.108 123.000 C 43.383 123.000,45.134 124.575,47.000 126.500 M42.128 125.750 C 43.371 127.336,43.336 127.371,41.750 126.128 C 40.084 124.821,39.555 124.000,40.378 124.000 C 40.585 124.000,41.373 124.787,42.128 125.750 M60.524 128.810 C 60.039 129.294,54.237 126.193,53.552 125.084 C 53.236 124.572,54.751 125.125,56.919 126.313 C 59.087 127.500,60.709 128.624,60.524 128.810 M144.419 129.157 C 141.577 134.652,134.179 141.677,128.794 143.993 C 118.562 148.395,103.570 145.009,93.000 135.909 L 89.500 132.896 95.061 135.937 C 108.352 143.204,121.086 145.034,129.290 140.856 C 135.439 137.724,139.414 134.454,142.522 129.968 C 145.831 125.193,146.650 124.843,144.419 129.157 M86.729 128.604 C 86.397 128.936,85.534 128.972,84.813 128.683 C 84.015 128.364,84.252 128.127,85.417 128.079 C 86.471 128.036,87.061 128.272,86.729 128.604 M80.250 130.706 C 79.013 130.944,76.987 130.944,75.750 130.706 C 74.513 130.467,75.525 130.272,78.000 130.272 C 80.475 130.272,81.487 130.467,80.250 130.706 M143.128 137.315 C 136.331 147.193,128.415 151.392,117.623 150.845 C 109.415 150.428,101.808 147.223,95.438 141.497 L 91.500 137.957 96.050 140.914 C 103.834 145.974,110.778 148.254,118.500 148.285 C 127.430 148.321,133.747 145.291,140.606 137.684 C 143.298 134.699,145.656 132.392,145.846 132.558 C 146.037 132.724,144.813 134.864,143.128 137.315 M145.307 140.092 C 139.076 150.754,129.874 156.455,119.068 156.348 C 110.925 156.267,103.597 153.311,98.882 148.205 C 97.022 146.191,96.412 145.300,97.527 146.225 C 98.642 147.150,102.242 149.149,105.527 150.668 C 110.390 152.916,112.893 153.426,119.000 153.410 C 128.488 153.386,134.630 150.452,141.606 142.612 C 144.298 139.586,146.638 137.086,146.807 137.055 C 146.975 137.025,146.300 138.391,145.307 140.092 M147.026 143.948 C 142.104 153.596,132.571 160.434,122.356 161.644 C 115.195 162.492,106.851 159.868,102.184 155.299 C 100.158 153.316,99.448 152.448,100.607 153.372 C 101.765 154.295,105.365 155.987,108.607 157.132 C 116.054 159.763,125.469 159.336,131.849 156.079 C 137.393 153.248,144.108 147.071,146.530 142.575 C 149.165 137.682,149.604 138.896,147.026 143.948 M147.307 150.191 C 144.637 154.906,137.283 161.685,132.131 164.179 C 122.932 168.632,110.156 167.205,103.000 160.926 L 99.500 157.855 104.000 160.350 C 113.026 165.355,124.064 165.568,133.661 160.922 C 136.007 159.787,140.305 156.218,143.213 152.993 C 146.121 149.767,148.638 147.099,148.807 147.064 C 148.975 147.029,148.300 148.436,147.307 150.191 " clip-rule="evenodd"/></svg>